<svg xmlns="http://www.w3.org/2000/svg" xmlns:xlink="http://www.w3.org/1999/xlink" width="673.429" height="377.621" viewBox="0 0 673.429 377.621"><defs><style>.a{fill:#e4ebf7;}.b,.c{fill:#fff;}.c{stroke:#0f22d3;stroke-miterlimit:10;stroke-width:1.61px;}.d{fill:#98b2d8;}.e{fill:#b1c3e8;}.f{fill:#b7cae5;}.g{fill:#97b3d1;}.h{fill:#ced9ea;}.i{fill:#b6c5dd;}.j{fill:#5d7ca0;}.k{fill:#799cbf;}.l{fill:#f2f4f9;}.m{fill:#c1cfe5;}.n{fill:url(#a);}.o,.r{fill:#1f395e;}.o{opacity:0.22;}.ad,.af,.ag,.ah,.ai,.o,.x,.y{mix-blend-mode:multiply;isolation:isolate;}.p{fill:url(#b);}.q{fill:url(#c);}.s{fill:url(#d);}.t{fill:#3150bc;}.u{fill:#feb19e;}.v{fill:#ff856a;}.w{fill:url(#e);}.x,.z{fill:#9abced;}.ad,.x{opacity:0.6;}.aa{fill:#c1c8d3;}.ab{fill:url(#f);}.ac{fill:url(#g);}.ad,.ae,.af,.ah,.ai{fill:#989898;}.af{opacity:0.71;}.ag,.ai{opacity:0.5;}</style><linearGradient id="a" x1="0.5" y1="0.944" x2="0.5" y2="0.102" gradientUnits="objectBoundingBox"><stop offset="0" stop-color="#1f3a65"/><stop offset="1" stop-color="#294a7a"/></linearGradient><linearGradient id="b" x1="0.5" y1="1.04" x2="0.5" y2="0.166" xlink:href="#a"/><linearGradient id="c" x1="0.5" y1="1.031" x2="0.5" y2="0.253" xlink:href="#a"/><linearGradient id="d" x1="0.703" y1="0.96" x2="0.33" y2="-0.043" gradientUnits="objectBoundingBox"><stop offset="0" stop-color="#3855e1"/><stop offset="1" stop-color="#5c7ef7"/></linearGradient><linearGradient id="e" x1="0.508" y1="0.868" x2="0.491" y2="0.143" gradientUnits="objectBoundingBox"><stop offset="0" stop-color="#3f2323"/><stop offset="1" stop-color="#5e3434"/></linearGradient><linearGradient id="f" x1="0" y1="0.5" x2="1" y2="0.5" xlink:href="#a"/><linearGradient id="g" x1="0.948" y1="-0.448" x2="0.223" y2="0.846" gradientUnits="objectBoundingBox"><stop offset="0" stop-color="#e2e8f7"/><stop offset="1" stop-color="#fff"/></linearGradient></defs><g transform="translate(94.875)"><path class="a" d="M648.956,293.655a331.681,331.681,0,0,1-3.546,52.379c-.17,1.17-.356,2.341-.559,3.477-1.256,7.582-2.782,14.656-4.512,21.186q-.458,1.68-.916,3.308c-6.649,23.239-16.1,38.946-26.172,44.747H189.992s-36.078-31.278-43.321-75.957c-.186-1.137-.356-2.273-.492-3.426-2.816-22.238,1.713-47.562,21.2-73.905,8.888-11.992,20.576-20.338,33.993-26.087,1.051-.441,2.086-.866,3.155-1.272,19.9-7.786,43.271-10.228,66.746-10.6,1.187-.018,2.374-.035,3.561-.035,13.977-.1,27.92.475,41.133,1,1.256.067,2.493.118,3.732.17,21.338.9,40.573,1.56,54.534-1h.017c1.289-.238,2.51-.51,3.7-.814h.017c15.453-3.783,23.069-12.552,17.59-31.414-10.619-36.588.254-63.405,23.916-78.214,1.205-.763,2.46-1.493,3.732-2.188,13.383-7.26,30.294-11.059,49.428-11.008,1.34,0,2.7.034,4.071.067a185.511,185.511,0,0,1,52.464,9.821,166.74,166.74,0,0,1,27.733,12.06c1.051.577,2.1,1.17,3.121,1.781a161.483,161.483,0,0,1,42.626,35.791c.8.915,1.56,1.849,2.324,2.8C635.386,203.806,648.65,252.2,648.956,293.655Z" transform="translate(-145.416 -104)"/><path class="b" d="M620.565,369.585q-.458,1.68-.916,3.308a140.455,140.455,0,0,1-19.574-8.753c-31.041-16.86-70.563-54.415-82.539-137.665-5.156-35.892,1.425-70.071,19.592-101.638,1.051.577,2.1,1.17,3.121,1.781-15.945,27.682-24.9,60.776-19.354,99.364,11.772,81.775,50.343,118.6,80.637,135.087A133.216,133.216,0,0,0,620.565,369.585Z" transform="translate(-125.642 -102.888)"/><path class="b" d="M623.233,343.018c-.17,1.17-.356,2.341-.559,3.477-19.609-9.211-44.322-29.243-55.857-72.734-11.144-42.117-6.7-79.5,13.655-113.256.8.915,1.56,1.849,2.324,2.8-19.355,32.7-23.476,68.883-12.688,109.593C581.134,314.5,604.49,333.943,623.233,343.018Z" transform="translate(-123.239 -100.984)"/><path class="b" d="M457.5,175.088c1.645,55.264-4.649,90.969-20.406,115.8-16.5,26.021-44.033,41.744-89.272,50.989a123.956,123.956,0,0,1-24.935,2.594c-25.46,0-49.445-8.294-70.461-24.51-24.443-18.879-43.152-47.307-53.889-80.587,1.051-.441,2.086-.866,3.155-1.272,10.517,32.72,28.853,60.674,52.821,79.18,26.935,20.813,58.977,28.157,92.63,21.288,84.133-17.216,110.118-56.926,106.964-163.381-.9-30.227,4.377-54.075,15.69-71.19,1.34,0,2.7.034,4.071.067C462.1,120.691,456.6,144.506,457.5,175.088Z" transform="translate(-142.58 -104)"/><path class="b" d="M348.978,288.89a66.231,66.231,0,0,1-10.788.883c-27.122,0-58.18-16.437-73.293-62.828,1.187-.018,2.374-.035,3.561-.035,16.657,49.8,52.363,63.168,79.96,58.639,37.283-6.106,73.142-44.492,66.2-103.605-2.986-25.358-3.121-47-1.527-65.3,1.205-.763,2.46-1.493,3.732-2.188-1.849,18.642-1.917,40.862,1.17,67.1C425.172,242.753,387.788,282.53,348.978,288.89Z" transform="translate(-139.038 -103.443)"/><path class="b" d="M369.307,220.6a43.2,43.2,0,0,1-7.514,17.131c-5.208,6.819-12.518,10.856-21.729,11.993a26.6,26.6,0,0,1-3.256.2,23.738,23.738,0,0,1-15.606-5.852c-6.14-5.157-10.618-13.163-13.875-21.83,1.256.067,2.493.118,3.732.17,3.019,7.667,7.022,14.6,12.331,19.065a20.51,20.51,0,0,0,16.251,4.885c8.277-1.018,14.807-4.613,19.455-10.669a38.568,38.568,0,0,0,6.5-14.282h.017C366.9,221.176,368.12,220.9,369.307,220.6Z" transform="translate(-136.773 -97.776)"/><path class="b" d="M246.2,406.824h-3.7c-15.215-34.841-37.147-58.062-65.271-69.07a106.786,106.786,0,0,0-30.6-6.887c-.186-1.137-.356-2.273-.492-3.426a110.39,110.39,0,0,1,32.33,7.158C207.831,346.1,230.595,370.355,246.2,406.824Z" transform="translate(-145.377 -92.073)"/></g><g transform="translate(0 21.401)"><path class="c" d="M463.007,462.485Z" transform="translate(-33.588 -106.265)"/><g transform="translate(90.14 87.995)"><g transform="translate(0 65.302)"><path class="d" d="M173.031,304.9,162.548,315.7l-4.376-6.429-1.459-2.154c-4.664,1.17-11.551-7.955-14.316-12.824-2.747-4.885,8.277-12.416,8.277-12.416-1.8-5.394-9.023-8.786-9.227-10.279-.2-1.476,1.594-3.071,8.158,0,6.582,3.087,12.3,13.994,12.3,13.994,1.17-3.173-4.02-11.755-3.07-12.722.95-.95,6.038.22,9.957,8.481,3.935,8.277,1.595,18.031,1.595,18.031l.051.085Z" transform="translate(-140.894 -269.845)"/><path class="e" d="M150.314,280.381s7.789,8.91,6.948,12.408-4.762-.56-4.762-.56,3.6,4.165,2.439,5.544-5.512-2.12-5.512-2.12,5.194,6.467,0,5.512-11.72-10.751-6.708-11.737c0,0-.607-7.133,3.951-4.695C146.669,284.732,144.629,278.786,150.314,280.381Z" transform="translate(-140.921 -269.298)"/><path class="f" d="M244.067,409.688s8.769-25.613,4.157-50.87a.989.989,0,0,1-.035-.17,1.255,1.255,0,0,0-.034-.2q-.2-.992-.407-1.985a106.6,106.6,0,0,1-12.112,8.855c-8.43,5.309-19.676,10.583-28.31,8.108-15.843-4.53-39.013-35.333-49.767-59.656a28.2,28.2,0,0,1,16.115-10.534s21.491,28.632,40.437,35.417a139.744,139.744,0,0,0,18.082-29.972c5.054-11.365,12.636-18.556,22.2-22.424a51.774,51.774,0,0,1,18.1-3.561l16.607-7.752a62.467,62.467,0,0,1,6.887.559c7.786,1.018,20.727,3.868,31.193,11.84,16.115,12.28,39.3,122.348,39.3,122.348Z" transform="translate(-140.033 -269.573)"/><path class="g" d="M244.232,356.194c-.135-.729-.288-1.459-.44-2.188a106.6,106.6,0,0,1-12.112,8.855l4.9-41.931C241.569,340.131,243.961,354.481,244.232,356.194Z" transform="translate(-136.076 -267.118)"/><path class="h" d="M291.082,275.5c-2.562,16.284-18.863,31.33-30.634,31.126-9.465-.171-10.856-13.74-10.957-20.372a51.774,51.774,0,0,1,18.1-3.561l16.607-7.752A62.467,62.467,0,0,1,291.082,275.5Z" transform="translate(-135.125 -269.573)"/><path class="g" d="M262.223,391.107s37.4-38.917,39.023-79.839l11.026,34.49-4.24,35.909Z" transform="translate(-134.446 -267.634)"/><path class="d" d="M263.314,403.695H221.439s.106-5.725,6.573-7.633,10.6-9.965,30-8.905Z" transform="translate(-136.623 -263.588)"/><path class="i" d="M304.5,366.317s-19.728,11.346-50.794,19.4c0,0-4.31,10.388,3.252,19.082h60.1Z" transform="translate(-134.966 -264.696)"/></g><g transform="translate(88.149)"><path class="j" d="M232.529,255.841s-8.93-12.327-7.832-20.626,8.781-6.35,8.781-6.35-.358-20.167,18.311-15.011c0,0-.411-6.158,3.665-6s10.47,9.535,10.47,9.535,1.586-6.946,4.347-5.306,3.612,8.808,9.378,12.259,9.333,7.917,4.805,21.909-1.13,14.983-2.747,22.167c-1.536,6.824-2.762,10.974-7,11.358s-20.446-16.719-20.446-16.719Z" transform="translate(-224.603 -207.853)"/><path class="d" d="M283.908,276s-10.4,25.222-21.322,23.323c-5.428-.95-6.632-4.258-6.684-8.091-.051-5,1.9-10.873-1.051-13.333l13.095-18.607,2.884-4.105A67.857,67.857,0,0,0,283.908,276Z" transform="translate(-222.988 -205.327)"/><path class="k" d="M255.9,291.02c-.051-5,1.9-10.873-1.051-13.333l13.095-18.607c1.12,1.306,1.917,3.63,2.24,7.277C271.916,285.575,261.756,290.036,255.9,291.02Z" transform="translate(-222.988 -205.119)"/><path class="d" d="M230.919,244.214s3.54,32.49,16.8,39.8c11.522,6.356,25.516-12.868,25.235-22.377,0,0,5.023-3.835,4.184-10.044s-7.4-4.149-8.189,5.856c0,0-5.337-.38-6.324-12.885-3.351,2.775-6.967,1.919-10.766-1.456,0,0-1.886,6.96-11.585-1.173C240.272,241.939,236.613,246.908,230.919,244.214Z" transform="translate(-224.266 -206.034)"/></g></g><g transform="translate(368.885 40.706)"><g transform="translate(18.451 202.871)"><path class="j" d="M530.162,363.6s17.113,28.553,23.041,42.4H492.86a247.681,247.681,0,0,0-9.485-32.729Z" transform="translate(-419.836 -355.12)"/><path class="k" d="M509.847,370.392c-3.3,10.944-8.338,20.286-15.808,27.382l2.04,8.663-73.024-.9,8.129-49.986Z" transform="translate(-423.056 -355.55)"/></g><g transform="translate(218.394 30.296)"><path class="k" d="M614.267,223.312s2.416-15.139,7.223-20.51,17.951-13.317,19.507-10.49S629.405,204,629.405,204s5.937-1.414,11.026,7.35S629.123,226.9,629.123,226.9l-3.252,7.35-13-8.2Z" transform="translate(-612.867 -191.721)"/><path class="d" d="M630.482,203.706s-7.328,7.451-6.257,9.579,5.111-1.217,5.111-1.217-3.3,5.019-.743,6.312,6.512-3.042,6.512-3.042-3.3,4.563-1.4,5.4,12.034-6.311,10.22-7.985-2.8-.3-2.8-.3,2.122-3.573,0-4.714a2.446,2.446,0,0,0-3.461.988s1.731-2.737.33-3.8-4.368.3-4.368.3S634.595,200.665,630.482,203.706Z" transform="translate(-612.266 -191.137)"/><path class="d" d="M624.281,203.484c-2.227-.636-6.75,3.993-6.75,3.993-1.779,2.289-2.143,6.85-2.214,8.953-.228,5.874-2.45,9-2.45,9l6.6,4.161c5.111-6.584,3.438-15.015,2.613-18C624.571,207.87,625.61,203.864,624.281,203.484Z" transform="translate(-612.867 -191.096)"/></g><g transform="translate(0 61.237)"><path class="f" d="M639.619,234.239s-22.052,58.723-57.1,63.931a180.4,180.4,0,0,1-35.79,2.12c-9.872-.509-14.723-2-15.08-2.1a.016.016,0,0,1-.017-.017s-9.617,17.912-3.392,43.644c6.208,25.715,8.481,31.092,8.481,31.092s-47.24,34.738-85.659,3.1L416.4,322.1l-10.856-16.9s9.974-32.754,38.1-54.041l.017-.018a86.071,86.071,0,0,1,40-16.826,101.666,101.666,0,0,1,27.343-.255s7.634,2.154,20.05,6.7c6.683,2.442,14.757,5.58,23.763,9.448,25.732,11.026,32.805,14.315,32.805,14.315S615.024,237.5,622.1,221.094C622.1,221.094,636.226,222.518,639.619,234.239Z" transform="translate(-405.54 -221.094)"/><path class="g" d="M461.771,259.026c-.126,13.161-2.94,25.912-4.178,35.817l21.79-4.412,33.905,33.522s4.3,9.823-4.45,11.519c-6.852,1.329-38.875,5.783-38.875,5.783-7.38,10.044-10.715,25.41-14.4,40.319l-32.513-56.492Z" transform="translate(-404.605 -219.069)"/><path class="h" d="M507.036,263.594c-15.18-3.85-23.17-17.505-27.343-29.887a101.666,101.666,0,0,1,27.343-.255s7.634,2.154,20.05,6.7C528.545,250.991,528.018,268.9,507.036,263.594Z" transform="translate(-401.582 -220.477)"/><path class="g" d="M544.466,273.427a165.625,165.625,0,0,0-4.122,24.07c-9.872-.509-14.723-2-15.08-2.1a.016.016,0,0,1-.017-.017S533.864,280.636,544.466,273.427Z" transform="translate(-399.15 -218.3)"/></g><g transform="translate(0 89.056)"><rect class="l" width="42.362" height="62.336" rx="1.946" transform="matrix(0.99, -0.144, 0.144, 0.99, 58.576, 26.754)"/><path class="d" d="M481.362,291.957l5.8-2.262s5.512-15.266,12.369-5.655c0,0,4.735-2.826,4.594-4.381s-.213-3.816-.213-3.816,9.6,2.073,7.448,15.454-10.346,11.685-18.4,11.826l-10.037,3.958Z" transform="translate(-401.492 -245.99)"/><path class="m" d="M489.147,312.128s-45.153,29.888-64.66,15.47a78.553,78.553,0,0,1-8.091-6.9L405.54,303.8s9.974-32.754,38.1-54.041l.017-.018c9.322-4.187,19.062-2.663,19.563,5.973,1.192,20.573-16.4,33.222-18.58,42.557l40.472-8.192S491.692,297.066,489.147,312.128Z" transform="translate(-405.54 -247.503)"/></g><g transform="translate(79.567)"><path class="j" d="M538.192,205.873s6.452-13.786,3.813-21.73-9.819-4.586-9.819-4.586-3.44-19.874-20.806-11.3c0,0-.754-6.125-4.728-5.2s-8.489,11.333-8.489,11.333-2.864-6.524-5.268-4.395-1.891,9.332-6.906,13.8-7.678,9.531-.6,22.422,3.928,14.5,6.867,21.256c2.791,6.412,4.776,10.258,9.008,9.839S518.2,217.049,518.2,217.049Z" transform="translate(-481.075 -162.96)"/><path class="d" d="M489.935,235.465s9.982,24.6,25.672,20.574c5.336-1.37,5.368-7.1,4.7-10.878-.891-4.925-3.91-10.322-1.474-13.293l-16.36-15.813-3.6-3.49A67.874,67.874,0,0,1,489.935,235.465Z" transform="translate(-480.602 -160.312)"/><path class="k" d="M519.718,244.984c-.891-4.925-3.91-10.322-1.474-13.293l-16.36-15.813c-.854,1.494-1.2,3.926-.831,7.569C502.967,242.646,513.786,245.118,519.718,244.984Z" transform="translate(-480.016 -160.135)"/><path class="d" d="M536.964,194.351s2.632,32.577-9.014,42.252c-10.122,8.409-27.481-7.84-28.992-17.233,0,0-5.654-2.822-6-9.077s6.49-5.467,9.143,4.211c0,0,5.171-1.378,3.789-13.845,3.813,2.094,7.2.575,10.3-3.454,0,0,3.159,6.48,11.157-3.332C527.35,193.874,531.879,198.066,536.964,194.351Z" transform="translate(-480.441 -161.31)"/></g></g><g transform="translate(244.502 92.909)"><g transform="translate(0 79.427)"><path class="n" d="M465.105,390.982V391a22.693,22.693,0,0,1-2.087,5.479C454.825,411.455,419.341,409,419.341,409H338.347c-33.518,0-46.951-.831-50.158-11.3a13.591,13.591,0,0,1-.44-1.781c-2.273-12.162,9.04-51.735,29.955-78.874,10.7-13.875,21.762-21.186,31.617-25a63.574,63.574,0,0,1,23.561-4.121c10.279,0,18.573.763,25.613,2.408,18.9,4.427,28.785,15.113,43.609,34.06C460.237,347.541,469.159,374.732,465.105,390.982Z" transform="translate(-287.461 -287.92)"/><path class="o" d="M320.872,379.3c8.789-13.824,11.552-33,13.994-52.462l7.634,39.579h66.152l12.156-39.579c-.287,18.5,2.251,36.64,11.026,54C431.834,380.83,388.578,429.779,320.872,379.3Z" transform="translate(-285.677 -285.843)"/><path class="p" d="M342.73,404.452h-4.393c-33.518,0-46.951-.831-50.158-11.3-1.747-8.227.475-16.878,10.5-19.456,15.707-4.037,43.05,11.874,43.05,11.874Z" transform="translate(-287.451 -283.376)"/><path class="q" d="M459.64,386.626s.017,0,0,.017a22.693,22.693,0,0,1-2.087,5.479c-8.193,14.978-43.677,12.518-43.677,12.518H389.84l3.054-20.354s42.609-19.728,57.875-13.57C458.232,373.717,460.522,379.96,459.64,386.626Z" transform="translate(-281.996 -283.564)"/><path class="r" d="M395.36,290.328c-.713,9.516-4.649,26.852-23.815,26.852-20.2,0-24.477-17.082-25.359-25.139a63.574,63.574,0,0,1,23.561-4.121C380.026,287.92,388.32,288.683,395.36,290.328Z" transform="translate(-284.326 -287.92)"/></g><g transform="translate(42.457 137.302)"><path class="b" d="M413.542,403.2h-77.6a3.393,3.393,0,0,1-3.393-3.393h0a3.393,3.393,0,0,1,3.393-3.392h77.6a3.393,3.393,0,0,1,3.393,3.392h0A3.393,3.393,0,0,1,413.542,403.2Z" transform="translate(-327.511 -340.003)"/><path class="s" d="M423.194,347.713l-.289,1.764v.017l-8.039,49.784h-79.1l-7.955-51.6a4.186,4.186,0,0,1,4.122-4.817h87.135A4.178,4.178,0,0,1,423.194,347.713Z" transform="translate(-327.766 -342.862)"/><path class="t" d="M422.478,349.158l-8.039,49.784H335.768l26.664-2.782A71.715,71.715,0,0,0,422.478,349.158Z" transform="translate(-327.339 -342.526)"/></g><g transform="translate(49.478)"><g transform="translate(21.118 73.778)"><path class="u" d="M370.78,310.257h-.527a18.553,18.553,0,0,1-7.633-1.543,13.768,13.768,0,0,1-7.887-12.909c.017-.559.017-1.1.017-1.644.017-4.53-.272-8.3-.272-8.3v-2.035l28.5-1.272a65.827,65.827,0,0,0,1.137,10.67c.017.051.017.084.034.136A14.13,14.13,0,0,1,370.78,310.257Z" transform="translate(-354.479 -282.557)"/><path class="v" d="M384.112,293.227c-11.874,13.943-24.069,5.8-29.361.933.017-4.53-.272-8.3-.272-8.3v-2.035l28.5-1.272A65.827,65.827,0,0,0,384.112,293.227Z" transform="translate(-354.479 -282.557)"/></g><path class="u" d="M346.257,271.894s8.836,24.907,23.572,24.907,20.862-26.82,20.862-26.82V246.657H345.127Z" transform="translate(-333.86 -210.696)"/><path class="u" d="M341.886,257.275s-4.34.794-3.6,5.777,5.265,11.026,8.94,7.846Z" transform="translate(-334.23 -210.129)"/><path class="u" d="M391.822,255.3s4.407.2,4.35,5.234-3.717,11.639-7.791,8.989Z" transform="translate(-331.551 -210.235)"/><path class="w" d="M394.7,257.581a116.5,116.5,0,0,1-3.44,14.223s-3.492-.7-4.622-9.891a12.477,12.477,0,0,1-12.282-5.659s-1.13,7.067-8.41,2.05c-4.854,3.963-10.593,4.38-17.1,1.7,0,0,1.1,9.265-2.015,13.717,0,0-1.13-3.66-4.741-14.052a3.5,3.5,0,0,0-2.541,1.468s-7.807-15.269-4.131-22.619,8.623-4.523,8.623-4.523-1.838-10.036,9.046-13.711,10.884-8.623,12.581-7.633,2.4,4.664,2.4,4.664,18.8-1.979,23.889,18.234c0,0,13.577.434,5.521,23.191C397.477,258.736,396.946,257.793,394.7,257.581Z" transform="translate(-334.431 -212.518)"/></g></g><path class="c" d="M408.632,282.557" transform="translate(-36.49 -115.87)"/><g transform="translate(206.391 159.142)"><path class="x" d="M326.505,275.394H255.466a4.185,4.185,0,0,0-4.185,4.184v42.4a4.185,4.185,0,0,0,4.185,4.185h49l12.78,11.327a1.255,1.255,0,0,0,2.018-1.349l-3.454-9.978h10.693a4.185,4.185,0,0,0,4.185-4.185v-42.4A4.185,4.185,0,0,0,326.505,275.394Z" transform="translate(-251.281 -275.394)"/><g class="y" transform="translate(8.741 9.113)"><path class="z" d="M277.06,286.276H260.695a1.115,1.115,0,0,1-1.116-1.116h0a1.115,1.115,0,0,1,1.116-1.116H277.06a1.115,1.115,0,0,1,1.116,1.116h0A1.115,1.115,0,0,1,277.06,286.276Z" transform="translate(-259.579 -284.045)"/><path class="z" d="M316.944,295.457H269.522a1.116,1.116,0,0,1-1.116-1.117h0a1.115,1.115,0,0,1,1.116-1.116h47.422a1.115,1.115,0,0,1,1.116,1.116h0A1.116,1.116,0,0,1,316.944,295.457Z" transform="translate(-259.108 -283.555)"/><path class="z" d="M317.415,301.989h-56.72a1.116,1.116,0,0,1-1.116-1.116h0a1.116,1.116,0,0,1,1.116-1.117h56.72a1.116,1.116,0,0,1,1.116,1.117h0A1.116,1.116,0,0,1,317.415,301.989Z" transform="translate(-259.579 -283.206)"/><path class="z" d="M317.415,308.521h-56.72a1.115,1.115,0,0,1-1.116-1.116h0a1.116,1.116,0,0,1,1.116-1.117h56.72a1.116,1.116,0,0,1,1.116,1.117h0A1.115,1.115,0,0,1,317.415,308.521Z" transform="translate(-259.579 -282.858)"/><path class="z" d="M317.415,315.053h-56.72a1.115,1.115,0,0,1-1.116-1.116h0a1.115,1.115,0,0,1,1.116-1.116h56.72a1.115,1.115,0,0,1,1.116,1.116h0A1.115,1.115,0,0,1,317.415,315.053Z" transform="translate(-259.579 -282.509)"/></g></g><g transform="translate(79.077 223.276)"><rect class="aa" width="519.332" height="11.025" rx="1.747" transform="translate(0 70.128)"/><g transform="translate(384.831)"><path class="ab" d="M0,0H22.051a0,0,0,0,1,0,0V19.491A7.649,7.649,0,0,1,14.4,27.14H7.649A7.649,7.649,0,0,1,0,19.491V0A0,0,0,0,1,0,0Z" transform="translate(5.088 42.935)"/><path class="ac" d="M507.833,379.213V373.33a1.749,1.749,0,0,1,1.749-1.75h2.227a1.749,1.749,0,0,0,1.749-1.75V367.6a1.749,1.749,0,0,0-1.749-1.75h-7.156a8.9,8.9,0,0,1-8.905-8.9h0a8.9,8.9,0,0,1,8.905-8.905h9.488a1.75,1.75,0,0,0,1.75-1.75v-.8a9.223,9.223,0,0,1,9.222-9.222h0a9.223,9.223,0,0,1,9.223,9.222h0a9.965,9.965,0,0,1-9.965,9.966h-16.7a1.749,1.749,0,0,0-1.75,1.749h0a1.75,1.75,0,0,0,1.75,1.75h9.117a6.1,6.1,0,0,1,6.1,6.1v3.816a6.1,6.1,0,0,1-6.1,6.1h0a1.749,1.749,0,0,0-1.75,1.749v2.491Z" transform="translate(-495.748 -336.278)"/></g></g><g transform="translate(398.209 149.402)"><rect class="ad" width="65.941" height="81.207" rx="3.824" transform="translate(0 4.381)"/><path class="ae" d="M498.822,349.05H440.939a4.882,4.882,0,0,1-4.877-4.876v-73.15a4.882,4.882,0,0,1,4.877-4.876h57.883a4.882,4.882,0,0,1,4.876,4.876v73.15A4.882,4.882,0,0,1,498.822,349.05Zm-57.883-81.206a3.184,3.184,0,0,0-3.181,3.18v73.15a3.184,3.184,0,0,0,3.181,3.18h57.883a3.183,3.183,0,0,0,3.18-3.18v-73.15a3.183,3.183,0,0,0-3.18-3.18Z" transform="translate(-433.235 -266.148)"/><g class="y" transform="translate(9.894 14.958)"><path class="af" d="M455.635,295.755H442.771V280.348h12.864Zm-11.168-1.7h9.472V282.044h-9.472Z" transform="translate(-442.771 -280.348)"/><path class="ae" d="M452.1,290.929l-3.826-4.265,1.262-1.133,2.32,2.589a22.6,22.6,0,0,1,9.519-6.906l.646,1.567c-6.813,2.806-9.314,7.083-9.337,7.126Z" transform="translate(-442.477 -280.302)"/><path class="ae" d="M487.2,285.954H467.246a1.26,1.26,0,0,1-1.26-1.26h0a1.259,1.259,0,0,1,1.26-1.26H487.2a1.259,1.259,0,0,1,1.26,1.26h0A1.26,1.26,0,0,1,487.2,285.954Z" transform="translate(-441.532 -280.183)"/><path class="ae" d="M487.2,291.761H467.246a1.26,1.26,0,0,1-1.26-1.26h0a1.26,1.26,0,0,1,1.26-1.26H487.2a1.26,1.26,0,0,1,1.26,1.26h0A1.26,1.26,0,0,1,487.2,291.761Z" transform="translate(-441.532 -279.873)"/></g><g class="y" transform="translate(9.894 38.563)"><path class="af" d="M455.635,318.164H442.771V302.757h12.864Zm-11.168-1.7h9.472V304.454h-9.472Z" transform="translate(-442.771 -302.757)"/><path class="ae" d="M452.1,313.339l-3.826-4.266,1.262-1.132,2.32,2.589a22.592,22.592,0,0,1,9.519-6.906l.646,1.566c-6.813,2.806-9.314,7.083-9.337,7.126Z" transform="translate(-442.477 -302.711)"/><path class="ae" d="M487.2,308.363H467.246a1.259,1.259,0,0,1-1.26-1.26h0a1.259,1.259,0,0,1,1.26-1.259H487.2a1.259,1.259,0,0,1,1.26,1.259h0A1.259,1.259,0,0,1,487.2,308.363Z" transform="translate(-441.532 -302.592)"/><path class="ae" d="M487.2,314.17H467.246a1.259,1.259,0,0,1-1.26-1.259h0a1.259,1.259,0,0,1,1.26-1.26H487.2a1.259,1.259,0,0,1,1.26,1.26h0A1.259,1.259,0,0,1,487.2,314.17Z" transform="translate(-441.532 -302.282)"/></g><g class="y" transform="translate(9.894 62.17)"><path class="af" d="M455.635,340.574H442.771V325.167h12.864Zm-11.168-1.7h9.472V326.863h-9.472Z" transform="translate(-442.771 -325.167)"/><path class="ae" d="M452.1,335.748l-3.826-4.265,1.262-1.133,2.32,2.589a22.6,22.6,0,0,1,9.519-6.906l.646,1.567c-6.813,2.806-9.314,7.083-9.337,7.126Z" transform="translate(-442.477 -325.121)"/><path class="ae" d="M487.2,330.773H467.246a1.26,1.26,0,0,1-1.26-1.26h0a1.259,1.259,0,0,1,1.26-1.26H487.2a1.259,1.259,0,0,1,1.26,1.26h0A1.26,1.26,0,0,1,487.2,330.773Z" transform="translate(-441.532 -325.002)"/><path class="ae" d="M487.2,336.58H467.246a1.26,1.26,0,0,1-1.26-1.26h0a1.26,1.26,0,0,1,1.26-1.26H487.2a1.26,1.26,0,0,1,1.26,1.26h0A1.26,1.26,0,0,1,487.2,336.58Z" transform="translate(-441.532 -324.692)"/></g></g><g transform="translate(601.551 36.448)"><rect class="ad" width="65.941" height="81.207" rx="3.824" transform="translate(0 5.474)"/><path class="ae" d="M693.2,241.82H635.318a4.881,4.881,0,0,1-4.876-4.876v-73.15a4.881,4.881,0,0,1,4.876-4.876H693.2a4.882,4.882,0,0,1,4.877,4.876v73.15A4.882,4.882,0,0,1,693.2,241.82Zm-57.883-81.206a3.184,3.184,0,0,0-3.18,3.18v73.15a3.184,3.184,0,0,0,3.18,3.18H693.2a3.183,3.183,0,0,0,3.18-3.18v-73.15a3.183,3.183,0,0,0-3.18-3.18Z" transform="translate(-626.2 -158.918)"/><g class="ag" transform="translate(5.808 13.743)"><circle class="ae" cx="10.177" cy="10.177" r="10.177" transform="translate(0 20.983) rotate(-76.661)"/><path class="ah" d="M646.109,184.05l6.785-12.085c6.219,1.555,9.188,7.421,6.219,13.429Z" transform="translate(-631.172 -171.965)"/><g transform="translate(2.638 31.663)"><path class="ae" d="M640.371,204.991a2.968,2.968,0,1,1-2.968-2.968A2.968,2.968,0,0,1,640.371,204.991Z" transform="translate(-634.434 -202.023)"/><path class="ae" d="M640.371,217.47A2.968,2.968,0,1,1,637.4,214.5,2.968,2.968,0,0,1,640.371,217.47Z" transform="translate(-634.434 -201.357)"/><path class="ae" d="M678.192,207.96H654.444a2.969,2.969,0,0,1-2.968-2.968h0a2.969,2.969,0,0,1,2.968-2.968h23.747a2.969,2.969,0,0,1,2.968,2.968h0A2.969,2.969,0,0,1,678.192,207.96Z" transform="translate(-633.524 -202.023)"/><path class="ae" d="M678.192,220.439H654.444a2.968,2.968,0,0,1-2.968-2.968h0a2.969,2.969,0,0,1,2.968-2.968h23.747a2.969,2.969,0,0,1,2.968,2.968h0A2.968,2.968,0,0,1,678.192,220.439Z" transform="translate(-633.524 -201.357)"/><path class="ae" d="M640.371,230.151a2.968,2.968,0,1,1-2.968-2.968A2.968,2.968,0,0,1,640.371,230.151Z" transform="translate(-634.434 -200.68)"/><path class="ae" d="M678.192,233.12H654.444a2.968,2.968,0,0,1-2.968-2.968h0a2.969,2.969,0,0,1,2.968-2.968h23.747a2.969,2.969,0,0,1,2.968,2.968h0A2.968,2.968,0,0,1,678.192,233.12Z" transform="translate(-633.524 -200.68)"/></g></g></g><g transform="translate(101.955)"><rect class="ad" width="65.941" height="94.776" rx="3.824" transform="translate(4.523 4.523)"/><path class="ae" d="M214.9,220.789H157.014a4.882,4.882,0,0,1-4.877-4.876v-86.72a4.882,4.882,0,0,1,4.877-4.876H214.9a4.881,4.881,0,0,1,4.876,4.876v86.72A4.881,4.881,0,0,1,214.9,220.789Zm-57.883-94.776a3.185,3.185,0,0,0-3.181,3.18v86.72a3.185,3.185,0,0,0,3.181,3.18H214.9a3.185,3.185,0,0,0,3.18-3.18v-86.72a3.185,3.185,0,0,0-3.18-3.18Z" transform="translate(-152.137 -124.317)"/><g transform="translate(10.562 17.032)"><path class="ae" d="M0,0H3.651a0,0,0,0,1,0,0V12.853a1.208,1.208,0,0,1-1.208,1.208H1.208A1.208,1.208,0,0,1,0,12.853V0A0,0,0,0,1,0,0Z" transform="matrix(0.748, -0.664, 0.664, 0.748, 12.71, 17.567)"/><path class="ae" d="M171.917,140.486a9.753,9.753,0,1,0,9.753,9.753A9.754,9.754,0,0,0,171.917,140.486Zm0,16.4a6.647,6.647,0,1,1,6.647-6.647A6.65,6.65,0,0,1,171.917,156.886Z" transform="translate(-162.164 -140.486)"/><path class="ae" d="M209.8,145.764H194.4A1.767,1.767,0,0,1,192.63,144h0a1.767,1.767,0,0,1,1.767-1.768H209.8A1.767,1.767,0,0,1,211.571,144h0A1.767,1.767,0,0,1,209.8,145.764Z" transform="translate(-160.538 -140.393)"/><path class="ae" d="M209.8,154.486H194.4a1.767,1.767,0,0,1-1.767-1.767h0a1.767,1.767,0,0,1,1.767-1.767H209.8a1.767,1.767,0,0,1,1.767,1.767h0A1.767,1.767,0,0,1,209.8,154.486Z" transform="translate(-160.538 -139.927)"/><path class="ae" d="M209.8,162.538H194.4a1.767,1.767,0,0,1-1.767-1.768h0A1.767,1.767,0,0,1,194.4,159H209.8a1.767,1.767,0,0,1,1.767,1.767h0A1.767,1.767,0,0,1,209.8,162.538Z" transform="translate(-160.538 -139.497)"/><path class="ae" d="M192.023,184.972H168.276a2.014,2.014,0,0,1-2.014-2.014h0a2.014,2.014,0,0,1,2.014-2.014h23.747a2.014,2.014,0,0,1,2.014,2.014h0A2.014,2.014,0,0,1,192.023,184.972Z" transform="translate(-161.945 -138.326)"/><path class="ae" d="M192.023,196.949H168.276a2.014,2.014,0,0,1-2.014-2.015h0a2.014,2.014,0,0,1,2.014-2.014h23.747a2.014,2.014,0,0,1,2.014,2.014h0A2.014,2.014,0,0,1,192.023,196.949Z" transform="translate(-161.945 -137.687)"/><path class="ae" d="M192.023,208.925H168.276a2.014,2.014,0,0,1-2.014-2.014h0a2.014,2.014,0,0,1,2.014-2.014h23.747a2.014,2.014,0,0,1,2.014,2.014h0A2.014,2.014,0,0,1,192.023,208.925Z" transform="translate(-161.945 -137.048)"/><path class="ae" d="M208.708,183.02a3.233,3.233,0,1,1-3.233-3.233A3.234,3.234,0,0,1,208.708,183.02Z" transform="translate(-160.025 -138.388)"/><path class="ae" d="M208.708,195a3.233,3.233,0,1,1-3.233-3.233A3.233,3.233,0,0,1,208.708,195Z" transform="translate(-160.025 -137.749)"/><path class="ae" d="M208.708,206.973a3.233,3.233,0,1,1-3.233-3.234A3.233,3.233,0,0,1,208.708,206.973Z" transform="translate(-160.025 -137.109)"/></g></g><g transform="translate(338.205 11.502)"><rect class="ad" width="120.008" height="84.387" rx="6.642" transform="translate(0 4.735)"/><path class="ae" d="M492.958,221.319H386.945a7.855,7.855,0,0,1-7.846-7.845V143.082a7.855,7.855,0,0,1,7.846-7.846H492.958a7.854,7.854,0,0,1,7.845,7.846v70.393A7.854,7.854,0,0,1,492.958,221.319ZM386.945,136.932a6.157,6.157,0,0,0-6.15,6.15v70.393a6.156,6.156,0,0,0,6.15,6.149H492.958a6.155,6.155,0,0,0,6.149-6.149V143.082a6.156,6.156,0,0,0-6.149-6.15Z" transform="translate(-376.272 -135.236)"/><g transform="translate(11.98 15.761)"><path class="ai" d="M449.593,156.347H390.862a3.073,3.073,0,0,1-3.074-3.074h0a3.074,3.074,0,0,1,3.074-3.075h58.731a3.075,3.075,0,0,1,3.075,3.075h0A3.074,3.074,0,0,1,449.593,156.347Z" transform="translate(-387.788 -150.198)"/><rect class="af" width="64.88" height="34.348" rx="2.063" transform="translate(0 16.962)"/><path class="ai" d="M477.087,156.347H459.7a3.074,3.074,0,0,1-3.075-3.074h0A3.075,3.075,0,0,1,459.7,150.2h17.386a3.075,3.075,0,0,1,3.075,3.075h0A3.074,3.074,0,0,1,477.087,156.347Z" transform="translate(-384.113 -150.198)"/><path class="ai" d="M478.18,171.727H459.91A1.908,1.908,0,0,1,458,169.819h0a1.908,1.908,0,0,1,1.908-1.908h18.27a1.908,1.908,0,0,1,1.909,1.908h0A1.908,1.908,0,0,1,478.18,171.727Z" transform="translate(-384.039 -149.252)"/><path class="ai" d="M478.18,179.913H459.91A1.909,1.909,0,0,1,458,178h0a1.908,1.908,0,0,1,1.908-1.909h18.27A1.908,1.908,0,0,1,480.088,178h0A1.909,1.909,0,0,1,478.18,179.913Z" transform="translate(-384.039 -148.816)"/><path class="ai" d="M478.18,188.1H459.91A1.908,1.908,0,0,1,458,186.19h0a1.908,1.908,0,0,1,1.908-1.908h18.27a1.908,1.908,0,0,1,1.909,1.908h0A1.908,1.908,0,0,1,478.18,188.1Z" transform="translate(-384.039 -148.379)"/><path class="ai" d="M478.18,196.284H459.91A1.909,1.909,0,0,1,458,194.376h0a1.908,1.908,0,0,1,1.908-1.909h18.27a1.908,1.908,0,0,1,1.909,1.909h0A1.909,1.909,0,0,1,478.18,196.284Z" transform="translate(-384.039 -147.942)"/><path class="ai" d="M468.939,211.914H401.3a2.545,2.545,0,0,1-2.545-2.544h0a2.545,2.545,0,0,1,2.545-2.545h67.637a2.545,2.545,0,0,1,2.544,2.545h0A2.544,2.544,0,0,1,468.939,211.914Z" transform="translate(-387.202 -147.175)"/></g></g><g transform="translate(0 109.876)"><path class="ad" d="M5.367,0H106.3a5.368,5.368,0,0,1,5.368,5.368V66.722a5.367,5.367,0,0,1-5.367,5.367H5.367A5.367,5.367,0,0,1,0,66.722V5.367A5.367,5.367,0,0,1,5.367,0Z" transform="translate(4.965 5.019)"/><path class="ae" d="M162.211,302.41H61.852a6.509,6.509,0,0,1-6.5-6.5V235.126a6.509,6.509,0,0,1,6.5-6.5h100.36a6.51,6.51,0,0,1,6.5,6.5v60.782A6.51,6.51,0,0,1,162.211,302.41ZM61.852,230.321a4.812,4.812,0,0,0-4.807,4.806v60.782a4.81,4.81,0,0,0,4.807,4.8h100.36a4.809,4.809,0,0,0,4.806-4.8V235.126a4.811,4.811,0,0,0-4.806-4.806Z" transform="translate(-55.349 -228.625)"/><g class="ag" transform="translate(19.879 13.737)"><path class="ae" d="M99.456,266.228a14.395,14.395,0,1,1-5.564-23.8l-4.614,13.637Z" transform="translate(-74.185 -241.666)"/><path class="ah" d="M104.636,254.87a12.127,12.127,0,0,1-3.587,8.629l-8.643-8.629,3.918-11.581A12.226,12.226,0,0,1,104.636,254.87Z" transform="translate(-73.25 -241.579)"/><path class="ae" d="M151.844,271.256H118.768V243.332a.848.848,0,1,1,1.7,0V269.56h31.38a.848.848,0,0,1,0,1.7Z" transform="translate(-71.843 -241.622)"/><rect class="ae" width="4.241" height="12.69" transform="translate(53.852 15.247)"/><rect class="ah" width="4.241" height="19.128" transform="translate(62.616 8.809)"/><rect class="ae" width="4.241" height="9.564" transform="translate(71.238 18.374)"/><rect class="ae" width="22.899" height="2.968" rx="1.409" transform="translate(0 39.624)"/><rect class="ae" width="22.899" height="2.968" rx="1.409" transform="translate(30.387 39.624)"/><rect class="ae" width="22.899" height="2.968" rx="1.409" transform="translate(58.941 39.624)"/><path class="ae" d="M108.047,292.314H88.117a1.484,1.484,0,0,1-1.484-1.484h0a1.484,1.484,0,0,1,1.484-1.484h19.93a1.484,1.484,0,0,1,1.484,1.484h0A1.484,1.484,0,0,1,108.047,292.314Z" transform="translate(-73.558 -239.121)"/><path class="ae" d="M135.154,292.314H115.223a1.484,1.484,0,0,1-1.484-1.484h0a1.484,1.484,0,0,1,1.484-1.484h19.931a1.484,1.484,0,0,1,1.484,1.484h0A1.484,1.484,0,0,1,135.154,292.314Z" transform="translate(-72.111 -239.121)"/></g></g></g></svg>