<svg xmlns="http://www.w3.org/2000/svg" xmlns:xlink="http://www.w3.org/1999/xlink" width="60.34" height="88.971" viewBox="0 0 60.34 88.971"><defs><style>.a{fill:#f3f3f3;}.b{fill:#5f5f5f;}.c{fill:#2da200;}.c,.d{stroke:#424242;stroke-miterlimit:10;}.d{fill:none;}.e{filter:url(#a);}</style><filter id="a" x="18.687" y="1.604" width="29.7" height="70.16" filterUnits="userSpaceOnUse"><feOffset dx="7" dy="7" input="SourceAlpha"/><feGaussianBlur stdDeviation="2.5" result="b"/><feFlood flood-opacity="0.749"/><feComposite operator="in" in2="b"/><feComposite in="SourceGraphic"/></filter></defs><path class="a" d="M335.357,162.467c6.85,10.2,6.489,21.185,6.241,28.707a46.777,46.777,0,0,1-2.5,13.729c-1.342,4.39-2.047,6.6-3.744,7.489-4.921,2.569-11.958-7.323-16.226-4.993-2.589,1.413-2.535,6.383-2.5,9.985.044,4.066,1.088,7.164,2.5,11.233a66.228,66.228,0,0,0,3.744,8.737H296.665l6.241-32.451s-8.7-.746-13.729-4.993c-3.284-2.773-4.347-6.487-4.993-8.737-2.851-9.949,1.136-22,8.737-29.955,6.243-6.534,18.565-14.116,29.955-9.985C329.4,153.6,332.919,158.836,335.357,162.467Z" transform="translate(-281.362 -148.384)"/><path class="b" d="M338.231,155.311c2.544,3.467-2.23,11.081-6.241,17.474a63.154,63.154,0,0,1-7.489,9.985c-5.533,5.992-6.993,5.2-11.233,9.985-6.68,7.54-5.236,11.966-9.985,13.729a9.827,9.827,0,0,1-3.06.554c-5.67.3-9.742-3.446-10.669-4.3a18.9,18.9,0,0,1-3.744-4.993,30.085,30.085,0,0,1-3.744-12.481c-.377-3.742-.841-8.361,1.248-13.729.675-1.736,3-7.718,8.737-11.233,3.673-2.253,6.062-1.846,8.737-4.993,1.911-2.248,1.606-3.531,3.744-4.993a8.943,8.943,0,0,1,7.489-1.248c1.479.477,1.228.945,2.5,1.248,0,0,.148.035.3.061,2.128.382,5.1-1.872,7.193-1.309,1.259.338.825,1.337,2.5,2.5,2.168,1.505,4.021.664,7.489,1.248C334.35,153.213,337.021,153.662,338.231,155.311Z" transform="translate(-281.739 -148.717)"/><g transform="translate(19.672 2.226)"><g class="e" transform="matrix(1, 0, 0, 1, -19.67, -2.23)"><path class="c" d="M311.229,150.5q-6.865,27.46-13.729,54.918" transform="translate(-277.83 -148.27)"/></g><path class="d" d="M319.869,151.5q-23.708,53.384-21.842,54.294,1.91.93,30.579-53.046" transform="translate(-297.403 -150.252)"/></g></svg>